<svg xmlns="http://www.w3.org/2000/svg" xmlns:xlink="http://www.w3.org/1999/xlink" fill-rule="evenodd" stroke-linejoin="round" stroke-miterlimit="1.414" clip-rule="evenodd" version="1.1" viewBox="0 0 24 24"><defs><linearGradient id="linearGradient821"><stop style="stop-color:#42a5f5;stop-opacity:1" id="stop817" offset="0"/><stop style="stop-color:#d891ef;stop-opacity:1" id="stop819" offset="1"/></linearGradient><linearGradient id="linearGradient823" x1="2" x2="14" y1="8" y2="8" gradientTransform="matrix(1, 0, 0, 1, 10.298719, 7.652916)" gradientUnits="userSpaceOnUse" xlink:href="#linearGradient821"/></defs><path fill-rule="nonzero" d="m10 4h-6c-1.11 0-2 .89-2 2v12c0 1.097.903 2 2 2h16c1.097 0 2-.903 2-2v-10c0-1.11-.9-2-2-2h-8l-2-2z" style="fill:#73638d"/><path style="fill:url(#linearGradient823);fill-opacity:1;stroke:none;border-block-color:#4d4d4d;border-color:#4d4d4d;border-inline-color:#4d4d4d;caret-color:#4d4d4d;color:#4d4d4d;column-rule-color:#4d4d4d;outline-color:#4d4d4d;text-decoration:none solid #4d4d4d;-webkit-text-emphasis-color:#4d4d4d;-webkit-text-fill-color:#4d4d4d;-webkit-text-stroke-color:#4d4d4d" id="path4" d="M 18.299 9.653 L 17.592 10.352 L 17.596 10.356 L 12.299 15.651 L 12.299 15.653 L 12.299 16.653 L 13.307 16.653 L 13.307 20.653 L 13.299 20.653 L 13.299 21.653 L 23.299 21.653 L 23.299 20.653 L 23.299 16.653 L 24.299 16.653 L 24.299 15.653 L 24.299 15.651 L 23.156 14.508 L 22.455 15.21 L 22.898 15.653 L 22.299 15.653 L 22.299 20.653 L 19.299 20.653 L 19.299 17.653 L 17.299 17.653 L 17.299 20.653 L 14.299 20.653 L 14.299 16.653 L 14.299 15.653 L 13.699 15.653 L 18.297 11.057 L 18.299 11.059 L 18.301 11.057 L 19.742 12.497 L 20.443 11.795 L 19.002 10.356 L 19.006 10.352 L 18.299 9.653 Z M 21.299 10.653 L 21.299 13.653 L 22.307 13.653 L 22.307 10.653 L 21.299 10.653 Z" class="ColorScheme-Text"/></svg>