<svg xmlns="http://www.w3.org/2000/svg" id="Layer_1" data-name="Layer 1" viewBox="0 0 157.64 191.28"><defs><style>.cls-1{fill:#b55c85}.cls-2{fill:#f7afd1}.cls-2,.cls-3,.cls-5{fill-rule:evenodd}.cls-3{fill:#f59bc5}.cls-4,.cls-5{fill:none;stroke:#995b99;stroke-linecap:round;stroke-linejoin:round;stroke-width:5px}.cls-4{opacity:.72}</style></defs><ellipse cx="78.82" cy="13.66" class="cls-1" rx="78.82" ry="13.66"/><path d="M1040.24,460.28l-35,175.36h-6.78l34.3-172A25,25,0,0,0,1040.24,460.28Z" class="cls-2" transform="translate(-883.38 -444.36)"/><path d="M1032.79,463.66l-34.3,172H918.87L884.78,464.71l-.94-4.69c7.08,6.07,39.47,10.65,78.36,10.65a397.58,397.58,0,0,0,49.11-2.78h.11A133.32,133.32,0,0,0,1032.79,463.66Z" class="cls-3" transform="translate(-883.38 -444.36)"/><line x1="37.34" x2="63.28" y1="66.48" y2="166.27" class="cls-4"/><line x1="123.15" x2="105.19" y1="62.89" y2="166.27" class="cls-4"/><path d="M879,507.25" class="cls-5" transform="translate(-883.38 -444.36)"/><line x1="82.25" x2="82.25" y1="62.89" y2="166.27" class="cls-4"/></svg>