<svg xmlns="http://www.w3.org/2000/svg" fill-rule="evenodd" stroke-linejoin="round" stroke-miterlimit="1.414" clip-rule="evenodd" version="1.1" viewBox="3.71 5.54 13.29 13.29" xml:space="preserve"><rect id="backgroundrect" width="100%" height="100%" x="0" y="0" fill="none" stroke="none"/><g class="currentLayer"><title>Layer 1</title><path id="svg_2" fill="#ef5350" stroke-width=".664" d="m13.015306850433351,10.18870290184021 v-1.3288000000000002 h-2.6576000000000004 v3.6542000000000003 c-0.27905,-0.20597000000000001 -0.6179000000000001,-0.33220000000000005 -0.99661,-0.33220000000000005 a1.661,1.661 0 0 0 -1.661,1.661 a1.661,1.661 0 0 0 1.661,1.661 a1.661,1.661 0 0 0 1.661,-1.661 v-3.6542000000000003 h1.9931999999999999 m-2.6576000000000004,-4.6508 a6.6441,6.6441 0 0 1 6.6441,6.6441 a6.6441,6.6441 0 0 1 -6.6441,6.6441 a6.6441,6.6441 0 0 1 -6.6441,-6.6441 a6.6441,6.6441 0 0 1 6.6441,-6.6441 z" class="selected"/></g></svg>