<svg xmlns="http://www.w3.org/2000/svg" xmlns:svg="http://www.w3.org/2000/svg" xmlns:xlink="http://www.w3.org/1999/xlink" id="svg6" version="1.1" viewBox="0 0 16 16"><metadata id="metadata10"/><defs id="defs3051"><linearGradient id="linearGradient821"><stop style="stop-color:#f59496;stop-opacity:1" id="stop817" offset="0"/><stop style="stop-color:#ef599f;stop-opacity:1" id="stop819" offset="1"/></linearGradient><style id="current-color-scheme" type="text/css">.ColorScheme-NegativeText{color:#da4453}</style><linearGradient id="linearGradient823" x1="1.852" x2="14.197" y1="2.18" y2="11.058" gradientUnits="userSpaceOnUse" xlink:href="#linearGradient821"/></defs><path style="fill:url(#linearGradient823);fill-opacity:1;stroke:none" id="path4" d="M 6 2 L 6 3 L 2 3 L 2 4 L 3 4 L 3 14 L 4 14 L 13 14 L 13 13 L 13 4 L 14 4 L 14 3 L 10 3 L 10 2 L 6 2 z M 7 3 L 9 3 L 9 4 L 10 4 L 12 4 L 12 13 L 4 13 L 4 4 L 7 4 L 7 3 z M 6 6 L 6 11 L 7 11 L 7 6 L 6 6 z M 9 6 L 9 11 L 10 11 L 10 6 L 9 6 z" class="ColorScheme-NegativeText"/>/&gt;</svg>