<svg xmlns="http://www.w3.org/2000/svg" xmlns:svg="http://www.w3.org/2000/svg" xmlns:xlink="http://www.w3.org/1999/xlink" id="svg2" width="24" height="24" version="1.1" viewBox="0 0 24 24"><metadata id="metadata7"/><g id="layer1" transform="translate(0,-1028.3621)"><g id="g4175"><path id="path4225" d="m 2.96023,1036.2648 0,-3.1511 7.484032,0 0,2.9895" style="fill:#bdc3c7;fill-opacity:1;fill-rule:evenodd;stroke:#7f8c8d;stroke-width:1.79999995;stroke-linecap:butt;stroke-linejoin:round;stroke-miterlimit:4;stroke-dasharray:none;stroke-opacity:1"/><path id="path4223" d="m 3.064692,1047.9336 17.775373,0 0,-11.8772 -17.85617,0 z" style="fill:#7f8c8d;fill-rule:evenodd;stroke:#7f8c8d;stroke-width:1.79999995;stroke-linecap:round;stroke-linejoin:round;stroke-miterlimit:4;stroke-dasharray:none;stroke-opacity:1;fill-opacity:1"/><path style="fill:none;fill-rule:evenodd;stroke:#566473;stroke-width:1.08878005;stroke-linecap:butt;stroke-linejoin:miter;stroke-miterlimit:4;stroke-dasharray:none;stroke-opacity:1" id="path4929" d="m 15.724965,1036.0613 3.08616,0"/><use id="use4965" width="100%" height="100%" x="0" y="0" transform="translate(1.5136096e-6,0)" xlink:href="#path4929"/><use id="use5040" width="100%" height="100%" x="0" y="0" transform="translate(1.5136096e-6,0)" xlink:href="#use4965"/><use id="use5042" width="100%" height="100%" x="0" y="0" transform="translate(1.5136096e-6,2.3953)" xlink:href="#use4965"/><use id="use5044" width="100%" height="100%" x="0" y="0" transform="translate(1.5136096e-6,4.7906)" xlink:href="#use4965"/><use id="use5046" width="100%" height="100%" x="0" y="0" transform="translate(1.5136096e-6,7.186)" xlink:href="#use4965"/><use id="use5048" width="100%" height="100%" x="0" y="0" transform="translate(1.5136096e-6,9.5813)" xlink:href="#use4965"/><use id="use5050" width="100%" height="100%" x="0" y="0" transform="translate(1.5136096e-6,11.9766)" xlink:href="#use4965"/><path style="fill:none;fill-rule:evenodd;stroke:#566473;stroke-width:1.08878005;stroke-linecap:butt;stroke-linejoin:miter;stroke-miterlimit:4;stroke-dasharray:none;stroke-opacity:1" id="path4929-5" d="m 14.849585,1037.2578 3.08616,0"/><use id="use4965-6" width="100%" height="100%" x="0" y="0" transform="translate(1.5136096e-6,0)" xlink:href="#path4929-5"/><use id="use5040-4" width="100%" height="100%" x="0" y="0" transform="translate(1.5136096e-6,0)" xlink:href="#use4965-6"/><use id="use5042-9" width="100%" height="100%" x="0" y="0" transform="translate(1.5136096e-6,2.3953)" xlink:href="#use4965-6"/><use id="use5044-3" width="100%" height="100%" x="0" y="0" transform="translate(1.5136096e-6,4.7906)" xlink:href="#use4965-6"/><use id="use5046-7" width="100%" height="100%" x="0" y="0" transform="translate(1.5136096e-6,7.186)" xlink:href="#use4965-6"/><use id="use5048-5" width="100%" height="100%" x="0" y="0" transform="translate(1.5136096e-6,9.5813)" xlink:href="#use4965-6"/></g></g></svg>